<?xml version="1.0" encoding="UTF-8" standalone="no"?>
<!-- Created with Inkscape (http://www.inkscape.org/) -->

<svg
   xmlns:dc="http://purl.org/dc/elements/1.1/"
   xmlns:cc="http://creativecommons.org/ns#"
   xmlns:rdf="http://www.w3.org/1999/02/22-rdf-syntax-ns#"
   xmlns:svg="http://www.w3.org/2000/svg"
   xmlns="http://www.w3.org/2000/svg"
   xmlns:sodipodi="http://sodipodi.sourceforge.net/DTD/sodipodi-0.dtd"
   xmlns:inkscape="http://www.inkscape.org/namespaces/inkscape"
   width="32"
   height="32"
   id="svg2"
   version="1.1"
   inkscape:version="0.48.4 r9939"
   sodipodi:docname="icon.svg"
   inkscape:export-filename="C:\Users\Jordan\Dropbox\Documents\Personal Website\jordanhennell\images\icon.png"
   inkscape:export-xdpi="90"
   inkscape:export-ydpi="90">
  <defs
     id="defs4" />
  <sodipodi:namedview
     id="base"
     pagecolor="#ffffff"
     bordercolor="#666666"
     borderopacity="1.0"
     inkscape:pageopacity="0.0"
     inkscape:pageshadow="2"
     inkscape:zoom="14.39375"
     inkscape:cx="21.177044"
     inkscape:cy="16.979592"
     inkscape:document-units="px"
     inkscape:current-layer="layer1"
     showgrid="false"
     inkscape:window-width="1440"
     inkscape:window-height="837"
     inkscape:window-x="-8"
     inkscape:window-y="-8"
     inkscape:window-maximized="1" />
  <metadata
     id="metadata7">
    <rdf:RDF>
      <cc:Work
         rdf:about="">
        <dc:format>image/svg+xml</dc:format>
        <dc:type
           rdf:resource="http://purl.org/dc/dcmitype/StillImage" />
        <dc:title></dc:title>
      </cc:Work>
    </rdf:RDF>
  </metadata>
  <g
     inkscape:label="Layer 1"
     inkscape:groupmode="layer"
     id="layer1"
     transform="translate(0,-1020.3622)">
    <text
       xml:space="preserve"
       style="font-size:40px;font-style:normal;font-variant:normal;font-weight:normal;font-stretch:normal;line-height:125%;letter-spacing:0px;word-spacing:0px;fill:#000000;fill-opacity:1;stroke:none;font-family:WebHostingHub-Glyphs;-inkscape-font-specification:WebHostingHub-Glyphs"
       x="1.7685345"
       y="1022.8994"
       id="text2985"
       sodipodi:linespacing="125%"><tspan
         sodipodi:role="line"
         id="tspan2987"
         x="1.7685345"
         y="1022.8994" /></text>
    <text
       xml:space="preserve"
       style="font-size:40px;font-style:normal;font-variant:normal;font-weight:normal;font-stretch:normal;line-height:125%;letter-spacing:0px;word-spacing:0px;fill:#000000;fill-opacity:1;stroke:none;font-family:WebHostingHub-Glyphs;-inkscape-font-specification:WebHostingHub-Glyphs"
       x="0.58951157"
       y="1050.1785"
       id="text2993"
       sodipodi:linespacing="125%"><tspan
         sodipodi:role="line"
         id="tspan2995"
         x="0.58951157"
         y="1050.1785"
         style="font-size:31px"></tspan></text>
    <path
       style="fill:#000264;fill-opacity:1;stroke:none"
       d="m 23.319033,1026.8004 c -0.748244,0.049 -1.540883,-0.086 -2.260096,0.1563 -0.700279,0.3573 -1.223129,1.0641 -1.258741,1.8685 0.01719,0.6826 -0.518899,1.1997 -1.09332,1.4681 -0.697895,0.4577 -1.552268,0.2493 -2.339621,0.3003 -3.672454,0.043 -7.3474964,-0.01 -11.0182616,0.106 -0.6297137,0 -1.0929286,0.6307 -1.0247503,1.231 -0.06083,3.677 -0.042883,7.3561 -0.00833,11.0334 -0.02282,0.5414 0.053752,1.2525 0.6618262,1.446 0.7661979,0.2087 1.5897387,0.076 2.3773192,0.1297 6.5363695,0.024 13.0728235,0 19.6092205,-0.01 0.389757,-0.1508 0.834248,-0.4112 0.833695,-0.8901 0.172105,-2.2241 0.06274,-4.4618 0.09553,-6.6913 -0.02519,-2.8241 0.0554,-5.6523 -0.07382,-8.4737 -0.185896,-0.9726 -1.164067,-1.7716 -2.175424,-1.6674 -0.774923,-0.013 -1.550209,-0.01 -2.325227,-0.01 z"
       id="path3785"
       inkscape:connector-curvature="0" />
    <path
       style="fill:#020064;fill-opacity:1;stroke:none"
       d="m 19.858329,1022.8924 c -0.633749,0.2736 -1.28059,0.6422 -1.571351,1.3048 -0.48965,0.8249 -0.922319,1.6821 -1.376977,2.5272 -4.990001,0.013 -9.9847121,-0.02 -14.9717762,0.024 -0.8711164,0.3033 -1.61503866,1.1362 -1.54161108,2.0994 -0.0587641,4.9474 -0.0344022,9.896 -0.0155898,14.8437 0.002363,0.8968 -0.0175774,1.8253 0.4499495,2.6292 0.59783608,1.028 1.63161678,1.8838 2.82240558,2.0603 5.2448868,0.1037 10.492286,0.034 15.738166,0.049 3.102793,-0.011 6.208825,0.012 9.309598,-0.021 1.572288,-0.4554 2.867622,-1.8277 3.117972,-3.4521 0.01293,-5.9936 0.02585,-11.9872 0.03878,-17.9809 -0.581352,-1.1171 -1.214127,-2.2268 -1.904038,-3.2826 -0.392524,-0.3968 -0.9313,-0.6682 -1.454625,-0.8207 -2.879529,0.013 -5.764921,-0.026 -8.640903,0.02 z"
       id="path3787"
       inkscape:connector-curvature="0"
       sodipodi:nodetypes="ccccccsccccccccc" />
    <path
       style="fill:#020064;fill-opacity:1;stroke:none"
       d="m 4.8822109,1020.9016 c -0.9238125,-0.038 -1.9431915,0.057 -2.6270082,0.7533 -0.7825307,1.0045 -1.27603408,2.2035 -1.91272256,3.3022 -0.0581647,0.4983 0.64414732,0.2272 0.94007816,0.2953 4.5973021,-0.021 9.1972417,0.048 13.7928787,-0.059 0.409037,-0.041 0.170138,-0.4926 0.03461,-0.6953 -0.55083,-0.9595 -1.067402,-1.9551 -1.738909,-2.8349 -0.516772,-0.4134 -1.131547,-0.8427 -1.828044,-0.7386 -2.2202828,-0.01 -4.4405912,-0.029 -6.6608831,-0.023 z"
       id="path3789"
       inkscape:connector-curvature="0" />
  </g>
</svg>
